<svg class="border shadow-md" viewBox="0 0 1320.391111111111 742.72" style="width: 1320.39px; height: 742.72px;" xmlns="http://www.w3.org/2000/svg" preserveAspectRatio="none"><rect class="bg" id="bg" x="0" y="0" width="1320.391111111111" height="742.72" fill="#ffffff" data-darkreader-inline-fill="" style="--darkreader-inline-fill: #17191a;"/><path d="M 0 -74.272 L 0 -74.27&#10;                L 88.03 -37.14&#10;                L 264.0782222222222 -74.27 L 264.0782222222222 -74.27&#10;                L 369.08 -34.27&#10;                L 528.1564444444444 -74.27 L 528.1564444444444 -74.27&#10;                L 657.16 -37.14&#10;                L 792.2346666666667 -74.27 L 792.2346666666667 -74.27&#10;                L 880.26 -11.27&#10;                L 1056.312888888889 -74.27 L 1056.312888888889 -74.27&#10;                L 1180.31 -36.27&#10;                L 1320.391111111111 -74.27 L 1320.391111111111 -74.27&#10;                L 1491.39 -25.27&#10;                L 1584.4693333333332 -74.27  V 742.72 H 0 V -74.27 Z" fill="#12161C" style="--darkreader-inline-fill: #0d1115;" data-darkreader-inline-fill=""/><path d="M 0 0 L 0 0.00&#10;                L 100.00 73.00&#10;                L 264.0782222222222 0.00 L 264.0782222222222 0.00&#10;                L 357.08 62.00&#10;                L 528.1564444444444 0.00 L 528.1564444444444 0.00&#10;                L 616.18 63.00&#10;                L 792.2346666666667 0.00 L 792.2346666666667 0.00&#10;                L 880.26 37.14&#10;                L 1056.312888888889 0.00 L 1056.312888888889 0.00&#10;                L 1144.34 43.00&#10;                L 1320.391111111111 0.00 L 1320.391111111111 0.00&#10;                L 1408.42 37.14&#10;                L 1584.4693333333332 0.00  V 742.72 H 0 V 0.00 Z" fill="#141922" style="--darkreader-inline-fill: #0f131a;" data-darkreader-inline-fill=""/><path d="M 0 74.272 L 0 74.27&#10;                L 88.03 111.41&#10;                L 264.0782222222222 74.27 L 264.0782222222222 74.27&#10;                L 434.08 111.41&#10;                L 528.1564444444444 74.27 L 528.1564444444444 74.27&#10;                L 724.16 130.27&#10;                L 792.2346666666667 74.27 L 792.2346666666667 74.27&#10;                L 944.23 129.27&#10;                L 1056.312888888889 74.27 L 1056.312888888889 74.27&#10;                L 1144.34 123.27&#10;                L 1320.391111111111 74.27 L 1320.391111111111 74.27&#10;                L 1408.42 132.27&#10;                L 1584.4693333333332 74.27  V 742.72 H 0 V 74.27 Z" fill="#161c28" style="--darkreader-inline-fill: #11151e;" data-darkreader-inline-fill=""/><path d="M 0 148.544 L 0 148.54&#10;                L 88.03 206.54&#10;                L 264.0782222222222 148.54 L 264.0782222222222 148.54&#10;                L 429.08 185.68&#10;                L 528.1564444444444 148.54 L 528.1564444444444 148.54&#10;                L 667.16 185.68&#10;                L 792.2346666666667 148.54 L 792.2346666666667 148.54&#10;                L 930.23 208.54&#10;                L 1056.312888888889 148.54 L 1056.312888888889 148.54&#10;                L 1236.31 205.54&#10;                L 1320.391111111111 148.54 L 1320.391111111111 148.54&#10;                L 1408.42 185.68&#10;                L 1584.4693333333332 148.54  V 742.72 H 0 V 148.54 Z" fill="#181f2e" style="--darkreader-inline-fill: #121823;" data-darkreader-inline-fill=""/><path d="M 0 222.81600000000003 L 0 222.82&#10;                L 150.00 259.95&#10;                L 264.0782222222222 222.82 L 264.0782222222222 222.82&#10;                L 411.08 259.95&#10;                L 528.1564444444444 222.82 L 528.1564444444444 222.82&#10;                L 616.18 259.95&#10;                L 792.2346666666667 222.82 L 792.2346666666667 222.82&#10;                L 905.23 259.95&#10;                L 1056.312888888889 222.82 L 1056.312888888889 222.82&#10;                L 1144.34 284.82&#10;                L 1320.391111111111 222.82 L 1320.391111111111 222.82&#10;                L 1512.39 259.95&#10;                L 1584.4693333333332 222.82  V 742.72 H 0 V 222.82 Z" fill="#1a2234" style="--darkreader-inline-fill: #141a28;" data-darkreader-inline-fill=""/><path d="M 0 297.088 L 0 297.09&#10;                L 88.03 334.22&#10;                L 264.0782222222222 297.09 L 264.0782222222222 297.09&#10;                L 429.08 359.09&#10;                L 528.1564444444444 297.09 L 528.1564444444444 297.09&#10;                L 616.18 334.22&#10;                L 792.2346666666667 297.09 L 792.2346666666667 297.09&#10;                L 961.23 361.09&#10;                L 1056.312888888889 297.09 L 1056.312888888889 297.09&#10;                L 1144.34 334.22&#10;                L 1320.391111111111 297.09 L 1320.391111111111 297.09&#10;                L 1439.39 334.22&#10;                L 1584.4693333333332 297.09  V 742.72 H 0 V 297.09 Z" fill="#1c253a" style="--darkreader-inline-fill: #151c2c;" data-darkreader-inline-fill=""/><path d="M 0 371.36 L 0 371.36&#10;                L 88.03 408.50&#10;                L 264.0782222222222 371.36 L 264.0782222222222 371.36&#10;                L 434.08 411.36&#10;                L 528.1564444444444 371.36 L 528.1564444444444 371.36&#10;                L 719.16 420.36&#10;                L 792.2346666666667 371.36 L 792.2346666666667 371.36&#10;                L 880.26 424.36&#10;                L 1056.312888888889 371.36 L 1056.312888888889 371.36&#10;                L 1214.31 416.36&#10;                L 1320.391111111111 371.36 L 1320.391111111111 371.36&#10;                L 1424.39 408.50&#10;                L 1584.4693333333332 371.36  V 742.72 H 0 V 371.36 Z" fill="#1e2840" style="--darkreader-inline-fill: #171e30;" data-darkreader-inline-fill=""/><path d="M 0 445.63200000000006 L 0 445.63&#10;                L 88.03 482.77&#10;                L 264.0782222222222 445.63 L 264.0782222222222 445.63&#10;                L 352.10 513.63&#10;                L 528.1564444444444 445.63 L 528.1564444444444 445.63&#10;                L 636.16 482.77&#10;                L 792.2346666666667 445.63 L 792.2346666666667 445.63&#10;                L 925.23 513.63&#10;                L 1056.312888888889 445.63 L 1056.312888888889 445.63&#10;                L 1144.34 482.77&#10;                L 1320.391111111111 445.63 L 1320.391111111111 445.63&#10;                L 1416.39 517.63&#10;                L 1584.4693333333332 445.63  V 742.72 H 0 V 445.63 Z" fill="#202b46" style="--darkreader-inline-fill: #192035;" data-darkreader-inline-fill=""/><path d="M 0 519.904 L 0 519.90&#10;                L 88.03 592.90&#10;                L 264.0782222222222 519.90 L 264.0782222222222 519.90&#10;                L 363.08 589.90&#10;                L 528.1564444444444 519.90 L 528.1564444444444 519.90&#10;                L 616.18 557.04&#10;                L 792.2346666666667 519.90 L 792.2346666666667 519.90&#10;                L 880.26 557.04&#10;                L 1056.312888888889 519.90 L 1056.312888888889 519.90&#10;                L 1144.34 557.04&#10;                L 1320.391111111111 519.90 L 1320.391111111111 519.90&#10;                L 1473.39 573.90&#10;                L 1584.4693333333332 519.90  V 742.72 H 0 V 519.90 Z" fill="#222e4c" style="--darkreader-inline-fill: #1a233a;" data-darkreader-inline-fill=""/><path d="M 0 594.176 L 0 594.18&#10;                L 183.00 659.18&#10;                L 264.0782222222222 594.18 L 264.0782222222222 594.18&#10;                L 379.08 631.31&#10;                L 528.1564444444444 594.18 L 528.1564444444444 594.18&#10;                L 713.16 665.18&#10;                L 792.2346666666667 594.18 L 792.2346666666667 594.18&#10;                L 880.26 631.31&#10;                L 1056.312888888889 594.18 L 1056.312888888889 594.18&#10;                L 1166.31 631.31&#10;                L 1320.391111111111 594.18 L 1320.391111111111 594.18&#10;                L 1464.39 631.31&#10;                L 1584.4693333333332 594.18  V 742.72 H 0 V 594.18 Z" fill="#243152" style="--darkreader-inline-fill: #1c253f;" data-darkreader-inline-fill=""/><path d="M 0 668.4480000000001 L 0 668.45&#10;                L 158.00 728.45&#10;                L 264.0782222222222 668.45 L 264.0782222222222 668.45&#10;                L 352.10 723.45&#10;                L 528.1564444444444 668.45 L 528.1564444444444 668.45&#10;                L 616.18 705.58&#10;                L 792.2346666666667 668.45 L 792.2346666666667 668.45&#10;                L 880.26 705.58&#10;                L 1056.312888888889 668.45 L 1056.312888888889 668.45&#10;                L 1191.31 706.45&#10;                L 1320.391111111111 668.45 L 1320.391111111111 668.45&#10;                L 1433.39 729.45&#10;                L 1584.4693333333332 668.45  V 742.72 H 0 V 668.45 Z" fill="#263458" style="--darkreader-inline-fill: #1c2843;" data-darkreader-inline-fill=""/></svg>